<svg width="22" height="21" viewBox="0 0 22 21" fill="none" xmlns="http://www.w3.org/2000/svg">
<path d="M20.0875 8.37344H6.7125L11.9 3.41094C12.6437 2.62969 12.6437 1.36719 11.9 0.585938C11.1562 -0.195312 9.95 -0.195312 9.2 0.585938L0.5625 8.96094C0.1875 9.32344 0 9.81719 0 10.3609V10.3859C0 10.9297 0.1875 11.4234 0.5625 11.7859L9.19375 20.1609C9.94375 20.9422 11.15 20.9422 11.8937 20.1609C12.6375 19.3797 12.6375 18.1172 11.8937 17.3359L6.70625 12.3734H20.0812C21.1375 12.3734 21.9937 11.4797 21.9937 10.3734C22 9.24844 21.1437 8.37344 20.0875 8.37344Z" fill="white"/>
</svg>
