<svg width="18" height="17" viewBox="0 0 18 17" fill="none" xmlns="http://www.w3.org/2000/svg">
<path d="M9 1.41667C4.8525 1.41667 1.5 4.58292 1.5 8.5C1.5 12.4171 4.8525 15.5833 9 15.5833C13.1475 15.5833 16.5 12.4171 16.5 8.5C16.5 4.58292 13.1475 1.41667 9 1.41667ZM12.225 11.5458C12.1556 11.6115 12.0732 11.6636 11.9825 11.6991C11.8917 11.7347 11.7945 11.753 11.6963 11.753C11.598 11.753 11.5008 11.7347 11.41 11.6991C11.3193 11.6636 11.2369 11.6115 11.1675 11.5458L9 9.49875L6.8325 11.5458C6.69227 11.6783 6.50207 11.7527 6.30375 11.7527C6.10543 11.7527 5.91523 11.6783 5.775 11.5458C5.63477 11.4134 5.55598 11.2338 5.55598 11.0465C5.55598 10.9537 5.57533 10.8619 5.61291 10.7762C5.65048 10.6905 5.70556 10.6127 5.775 10.5471L7.9425 8.5L5.775 6.45292C5.63477 6.32048 5.55598 6.14085 5.55598 5.95355C5.55598 5.76624 5.63477 5.58661 5.775 5.45417C5.91523 5.32173 6.10543 5.24732 6.30375 5.24732C6.50207 5.24732 6.69227 5.32173 6.8325 5.45417L9 7.50126L11.1675 5.45417C11.2369 5.38859 11.3194 5.33657 11.4101 5.30108C11.5008 5.26559 11.5981 5.24732 11.6963 5.24732C11.7944 5.24732 11.8917 5.26559 11.9824 5.30108C12.0731 5.33657 12.1556 5.38859 12.225 5.45417C12.2944 5.51975 12.3495 5.5976 12.3871 5.68329C12.4247 5.76897 12.444 5.8608 12.444 5.95355C12.444 6.04629 12.4247 6.13812 12.3871 6.22381C12.3495 6.30949 12.2944 6.38734 12.225 6.45292L10.0575 8.5L12.225 10.5471C12.51 10.8163 12.51 11.2696 12.225 11.5458Z" fill="#BDBDBD"/>
</svg>
